<svg width="347" height="463" viewBox="0 0 347 463" fill="none" xmlns="http://www.w3.org/2000/svg">
<path d="M102.404 145.346V184.827H202.956C220.641 184.827 229.483 178.247 229.483 165.086V164.778C229.483 151.823 220.641 145.346 202.956 145.346H102.404ZM102.404 240.347V319H14.8053V89.5173H223.314C287.676 89.5173 319.857 109.155 319.857 148.43V151.823C319.857 159.637 318.315 166.731 315.23 173.106C312.146 179.48 308.033 184.621 302.892 188.528C297.957 192.435 293.022 195.519 288.087 197.781C283.358 200.043 278.525 201.791 273.59 203.025C288.19 206.315 299.705 212.689 308.136 222.148C316.567 231.402 320.782 243.225 320.782 257.62V291.548C320.782 303.475 322.222 312.111 325.1 317.458V319H235.652C233.801 316.944 232.876 312.934 232.876 306.971V280.136C232.876 266.564 229.277 256.591 222.08 250.217C215.089 243.637 203.162 240.347 186.3 240.347H102.404Z" fill="#FF0000"/>
<path d="M20.2545 454.593V339.851H101.684C114.433 339.851 125.743 340.879 135.613 342.936C145.483 344.992 153.451 347.717 159.517 351.11C165.583 354.502 170.518 358.615 174.323 363.447C178.229 368.28 180.903 373.163 182.342 378.098C183.781 383.034 184.501 388.38 184.501 394.138V398.764C184.501 404.419 183.833 409.714 182.496 414.649C181.263 419.584 178.744 424.571 174.939 429.609C171.238 434.647 166.406 438.965 160.443 442.563C154.582 446.059 146.614 448.938 136.538 451.2C126.565 453.462 114.998 454.593 101.838 454.593H20.2545ZM64.0536 369.925V424.211H96.5945C124.869 424.211 139.006 415.266 139.006 397.376V396.451C139.006 378.767 124.869 369.925 96.5945 369.925H64.0536ZM292.645 454.593H234.503L176.515 339.851H226.175L264.73 419.893L300.973 339.851H346.468L292.645 454.593Z" fill="#FF0000"/>
</svg>
